<?xml version="1.0" encoding="utf-8"?>
<!-- Generator: Adobe Illustrator 16.0.0, SVG Export Plug-In . SVG Version: 6.00 Build 0)  -->
<!DOCTYPE svg PUBLIC "-//W3C//DTD SVG 1.1//EN" "http://www.w3.org/Graphics/SVG/1.1/DTD/svg11.dtd">
<svg version="1.1" xmlns="http://www.w3.org/2000/svg" xmlns:xlink="http://www.w3.org/1999/xlink" x="0px" y="0px" width="600px"
	 height="600px" viewBox="0 0 600 600" enable-background="new 0 0 600 600" xml:space="preserve">
<g id="Calque_1">
</g>
<g id="Calque_2">
	<image overflow="visible" width="445" height="270" xlink:href="home_tab_right_active.png"  transform="matrix(1 0 0 1 77 165)">
	</image>
	<path fill="#FFFFFF" d="M635.234,357.468"/>
	<path fill="#E3ED15" d="M101,223c0,0-3.5,3.5-4,6s0-9.5,0-9.5s-3.5-5.5,6.5-6s77.5,0,77.5,0s77,4,77.5,3s104,7,106,7.5
		s111,12,112,13.5s26.5,1.5,27,5s0,12,0,12L501,252l-2.5-0.5C498.5,251.5,96,216,101,223z"/>
	<path fill="#E3ED15" d="M185,260"/>
	<path fill="#E3ED15" d="M131.059,222.792c0,0-30.059,3.708-30.059,0.208s-4,6-4,6l-0.593-11.5"/>
</g>
<g id="Calque_3">
	<path fill="#EFEFEA" d="M97,229c0,0,2.002-5.501,7.335-5.75s13.333,0,13.333,0s38.213,0.929,36.723,0.839
		c-1.239-0.075,239.487,17.43,321.867,26.301c16.687,1.797,26.876,3.24,27.241,4.11c2.169,5.168,0.223,173.168,0.223,173.168
		L96.407,435L97,229z"/>
</g>
</svg>
